<svg width="27" height="32" viewBox="0 0 27 32" fill="none" xmlns="http://www.w3.org/2000/svg">
<path d="M23.76 0H2.64C1.188 0 0 1.188 0 2.64V29.04C0 30.492 1.188 31.68 2.64 31.68H23.76C25.212 31.68 26.4 30.492 26.4 29.04V2.64C26.4 1.188 25.212 0 23.76 0ZM7.92 26.4C7.92 27.126 7.326 27.72 6.6 27.72H3.96C3.234 27.72 2.64 27.126 2.64 26.4V25.74C2.64 25.014 3.234 24.42 3.96 24.42H6.6C7.326 24.42 7.92 25.014 7.92 25.74V26.4ZM7.92 21.12C7.92 21.846 7.326 22.44 6.6 22.44H3.96C3.234 22.44 2.64 21.846 2.64 21.12V20.46C2.64 19.734 3.234 19.14 3.96 19.14H6.6C7.326 19.14 7.92 19.734 7.92 20.46V21.12ZM7.92 15.84C7.92 16.566 7.326 17.16 6.6 17.16H3.96C3.234 17.16 2.64 16.566 2.64 15.84V15.18C2.64 14.454 3.234 13.86 3.96 13.86H6.6C7.326 13.86 7.92 14.454 7.92 15.18V15.84ZM15.84 26.4C15.84 27.126 15.246 27.72 14.52 27.72H11.88C11.154 27.72 10.56 27.126 10.56 26.4V25.74C10.56 25.014 11.154 24.42 11.88 24.42H14.52C15.246 24.42 15.84 25.014 15.84 25.74V26.4ZM15.84 21.12C15.84 21.846 15.246 22.44 14.52 22.44H11.88C11.154 22.44 10.56 21.846 10.56 21.12V20.46C10.56 19.734 11.154 19.14 11.88 19.14H14.52C15.246 19.14 15.84 19.734 15.84 20.46V21.12ZM15.84 15.84C15.84 16.566 15.246 17.16 14.52 17.16H11.88C11.154 17.16 10.56 16.566 10.56 15.84V15.18C10.56 14.454 11.154 13.86 11.88 13.86H14.52C15.246 13.86 15.84 14.454 15.84 15.18V15.84ZM23.76 26.4C23.76 27.126 23.166 27.72 22.44 27.72H19.8C19.074 27.72 18.48 27.126 18.48 26.4V25.74C18.48 25.014 19.074 24.42 19.8 24.42H22.44C23.166 24.42 23.76 25.014 23.76 25.74V26.4ZM23.76 21.12C23.76 21.846 23.166 22.44 22.44 22.44H19.8C19.074 22.44 18.48 21.846 18.48 21.12V20.46C18.48 19.734 19.074 19.14 19.8 19.14H22.44C23.166 19.14 23.76 19.734 23.76 20.46V21.12ZM23.76 15.84C23.76 16.566 23.166 17.16 22.44 17.16H19.8C19.074 17.16 18.48 16.566 18.48 15.84V15.18C18.48 14.454 19.074 13.86 19.8 13.86H22.44C23.166 13.86 23.76 14.454 23.76 15.18V15.84ZM23.76 9.9C23.76 10.626 23.166 11.22 22.44 11.22H3.96C3.234 11.22 2.64 10.626 2.64 9.9V4.62C2.64 3.894 3.234 3.3 3.96 3.3H22.44C23.166 3.3 23.76 3.894 23.76 4.62V9.9Z" fill="#9EC83E"/>
</svg>
