<svg width="45" height="45" viewBox="0 0 65 65" fill="none" fill-opacity="50" xmlns="http://www.w3.org/2000/svg">
<rect y="0.000244141" width="65" height="65" rx="32.5" fill-opacity="50" fill="#A6CE39"/>
<path d="M22.5156 29.1523L32.5273 33.6641C32.8281 33.793 33.1289 33.793 33.4297 33.6641L43.4414 29.1523C44.1719 28.8086 44.1719 27.7344 43.4414 27.3906L33.4297 22.8789C33.3008 22.793 33.1289 22.793 33 22.793C32.8281 22.793 32.6562 22.793 32.5273 22.8789L22.5156 27.3906C21.7852 27.7344 21.7852 28.8086 22.5156 29.1523ZM43.4414 32.9336L40.9492 31.7734L33.9883 34.9531C33.6875 35.082 33.3438 35.168 33 35.168C32.6133 35.168 32.2695 35.082 31.9688 34.9531L25.0078 31.7734L22.5156 32.9336C21.7852 33.2344 21.7852 34.3086 22.5156 34.6523L32.5273 39.1641C32.8281 39.293 33.1289 39.293 33.4297 39.1641L43.4414 34.6523C44.1719 34.3086 44.1719 33.2344 43.4414 32.9336ZM43.4414 38.4336L40.9492 37.2734L33.9883 40.4531C33.6875 40.582 33.3438 40.668 33 40.668C32.6133 40.668 32.2695 40.582 31.9688 40.4531L25.0078 37.2734L22.5156 38.4336C21.7852 38.7344 21.7852 39.8086 22.5156 40.1523L32.5273 44.6641C32.8281 44.793 33.1289 44.793 33.4297 44.6641L43.4414 40.1523C44.1719 39.8086 44.1719 38.7344 43.4414 38.4336Z" fill="white"/>
</svg>
