<svg width="28" height="28" viewBox="0 0 28 28" fill="none" xmlns="http://www.w3.org/2000/svg">
<path d="M11.125 27.875H2.875C2.11875 27.875 1.47112 27.606 0.932125 27.0679C0.394042 26.5289 0.125 25.8813 0.125 25.125V5.875C0.125 5.11875 0.394042 4.47112 0.932125 3.93212C1.47112 3.39404 2.11875 3.125 2.875 3.125H8.61563C8.86771 2.32292 9.36042 1.66383 10.0938 1.14775C10.8271 0.632583 11.6292 0.375 12.5 0.375C13.4167 0.375 14.2362 0.632583 14.9585 1.14775C15.6799 1.66383 16.1667 2.32292 16.4188 3.125H22.125C22.8813 3.125 23.5289 3.39404 24.0679 3.93212C24.606 4.47112 24.875 5.11875 24.875 5.875V12.75H22.125V5.875H19.375V10H5.625V5.875H2.875V25.125H11.125V27.875ZM17.3125 26.3969L11.4688 20.5531L13.3937 18.6281L17.3125 22.5469L25.0812 14.7781L27.0062 16.7031L17.3125 26.3969ZM12.5 5.875C12.8896 5.875 13.2164 5.743 13.4804 5.479C13.7435 5.21592 13.875 4.88958 13.875 4.5C13.875 4.11042 13.7435 3.78362 13.4804 3.51962C13.2164 3.25654 12.8896 3.125 12.5 3.125C12.1104 3.125 11.7841 3.25654 11.521 3.51962C11.257 3.78362 11.125 4.11042 11.125 4.5C11.125 4.88958 11.257 5.21592 11.521 5.479C11.7841 5.743 12.1104 5.875 12.5 5.875Z" fill="#9EC83E"/>
</svg>
