<svg width="45" height="45" viewBox="0 0 65 65" fill="none" xmlns="http://www.w3.org/2000/svg">
<path d="M35.25 35.875C34.1042 35.875 33.1302 35.474 32.3281 34.6719C31.526 33.8698 31.125 32.8958 31.125 31.75C31.125 30.6042 31.526 29.6302 32.3281 28.8281C33.1302 28.026 34.1042 27.625 35.25 27.625C36.3958 27.625 37.3698 28.026 38.1719 28.8281C38.974 29.6302 39.375 30.6042 39.375 31.75C39.375 32.8958 38.974 33.8698 38.1719 34.6719C37.3698 35.474 36.3958 35.875 35.25 35.875ZM22.875 40V23.5H47.625V40H22.875ZM28.375 37.25H42.125C42.125 36.4937 42.394 35.8461 42.9321 35.3071C43.4711 34.769 44.1187 34.5 44.875 34.5V29C44.1187 29 43.4711 28.7305 42.9321 28.1915C42.394 27.6534 42.125 27.0062 42.125 26.25H28.375C28.375 27.0062 28.1055 27.6534 27.5665 28.1915C27.0284 28.7305 26.3813 29 25.625 29V34.5C26.3813 34.5 27.0284 34.769 27.5665 35.3071C28.1055 35.8461 28.375 36.4937 28.375 37.25ZM17.375 45.5V27.625H20.125V42.75H43.5V45.5H17.375Z" fill="#9EC83E"/>
<path opacity="0.1" d="M0 32.127C0 14.5224 14.2714 0.250977 31.876 0.250977H33.124C50.7286 0.250977 65 14.5224 65 32.127C65 49.7316 50.7286 64.003 33.124 64.003H31.876C14.2714 64.003 0 49.7316 0 32.127Z" fill="white"/>
</svg>
